#!OML:ASF I:\Actors\actors\Patient Classification 2\Patient 1\Session 1\actor1.ASF
:FULLY-SPECIFIED
:DEGREES
715
root -0.771291 18.8169 6.11476 4.01511 -4.18002 -1.83726
lowerback 14.552 -0.520946 5.44639
upperback -0.61045 0.658668 4.61054
thorax -8.86595 0.183859 1.74068
lowerneck -0.147232 -4.47701 1.26448
upperneck -2.89231 -6.24963 -8.84764
head -1.24348 -3.05506 -2.97346
rclavicle -2.38542e-015 0
rhumerus 30.1794 13.4453 -57.2405
rradius 131.163
rwrist -1.1881
rhand -35.5439 -41.1818
rfingers 7.12502
rthumb -8.66963 -70.9837
lclavicle -2.38542e-015 0
lhumerus -52.2565 -23.4418 106.7
lradius 111.544
lwrist -4.14936
lhand -12.1286 -35.6353
lfingers 7.12502
lthumb 13.9331 -6.12214
rfemur 0 0 0
rtibia 0
rfoot 0 0
rtoes 0
lfemur -8.23534 -0.11308 -15.1462
ltibia 24.5622
lfoot -22.4008 13.0187
ltoes -55.2578
716
root -0.770874 18.817 6.11714 4.03437 -4.03528 -1.87347
lowerback 14.5691 -0.449513 5.46994
upperback -0.601091 0.755231 4.57172
thorax -8.86354 0.228318 1.66402
lowerneck -0.358169 -4.47471 1.36781
upperneck -2.80705 -6.24055 -8.97072
head -1.18756 -3.05775 -3.03996
rclavicle 1.39149e-015 -4.77083e-015
rhumerus 30.1593 13.5468 -57.248
rradius 131.178
rwrist -0.985573
rhand -35.3013 -41.7751
rfingers 7.12502
rthumb -8.43557 -71.5866
lclavicle 1.39149e-015 -4.77083e-015
lhumerus -52.1791 -23.499 106.596
lradius 111.557
lwrist -4.0435
lhand -12.0875 -35.5348
lfingers 7.12502
lthumb 13.9727 -6.02434
rfemur 0 0 0
rtibia 0
rfoot 0 0
rtoes 0
lfemur -8.29218 -0.161571 -15.0979
ltibia 24.5988
lfoot -22.3911 12.9245
ltoes -55.2851
717
root -0.769236 18.8173 6.11729 4.06542 -3.89546 -1.87798
lowerback 14.5846 -0.360708 5.46001
upperback -0.58108 0.867269 4.52342
thorax -8.84822 0.281779 1.59222
lowerneck -0.556912 -4.46664 1.6126
upperneck -2.74032 -6.23014 -9.23474
head -1.15064 -3.05943 -3.18064
rclavicle -5.1684e-015 1.11319e-014
rhumerus 30.1577 13.5429 -57.2418
rradius 131.205
rwrist -0.935235
rhand -34.9079 -42.4042
rfingers 7.12502
rthumb -8.05585 -72.2307
lclavicle -5.1684e-015 1.11319e-014
lhumerus -52.1016 -23.6079 106.501
lradius 111.563
lwrist -3.88612
lhand -12.1478 -35.4328
lfingers 7.12502
lthumb 13.9146 -5.91839
rfemur 0 0 0
rtibia 0
rfoot 0 0
rtoes 0
lfemur -8.37255 -0.226818 -15.0899
ltibia 24.6367
lfoot -22.3829 12.8233
ltoes -55.2616
718
root -0.76746 18.8182 6.11622 4.10583 -3.76861 -1.86316
lowerback 14.6188 -0.251996 5.41076
upperback -0.570204 1.00271 4.49149
thorax -8.85405 0.348354 1.55551
lowerneck -0.673915 -4.40542 1.6976
upperneck -2.68939 -6.14594 -9.36098
head -1.11682 -3.02132 -3.24431
rclavicle -2.22639e-014 1.27222e-014
rhumerus 30.2386 13.502 -57.1338
rradius 131.186
rwrist -1.03925
rhand -34.8069 -42.7943
rfingers 7.12502
rthumb -7.95842 -72.6245
lclavicle -2.22639e-014 1.27222e-014
lhumerus -51.9914 -23.7027 106.474
lradius 111.519
lwrist -3.82326
lhand -12.1869 -35.4212
lfingers 7.12502
lthumb 13.8769 -5.90413
rfemur 0 0 0
rtibia 0
rfoot 0 0
rtoes 0
lfemur -8.4714 -0.312767 -15.1064
ltibia 24.6737
lfoot -22.3647 12.7707
ltoes -55.2627
719
root -0.765068 18.819 6.11463 4.15589 -3.64671 -1.87883
lowerback 14.6606 -0.170007 5.37084
upperback -0.578557 1.10903 4.48973
thorax -8.88637 0.40075 1.55308
lowerneck -0.729332 -4.31767 1.50789
upperneck -2.64903 -6.01954 -9.25174
head -1.07514 -2.95933 -3.17534
rclavicle -1.11319e-014 -3.33958e-014
rhumerus 30.3438 13.5658 -57.0091
rradius 131.135
rwrist -0.997578
rhand -34.9269 -43.0149
rfingers 7.12502
rthumb -8.07419 -72.8406
lclavicle -1.11319e-014 -3.33958e-014
lhumerus -51.9129 -23.655 106.452
lradius 111.494
lwrist -3.85027
lhand -12.173 -35.4672
lfingers 7.12502
lthumb 13.8903 -5.95109
rfemur 0 0 0
rtibia 0
rfoot 0 0
rtoes 0
lfemur -8.57616 -0.443121 -15.0971
ltibia 24.707
lfoot -22.3525 12.8168
ltoes -55.2392
720
root -0.762826 18.8201 6.11334 4.19217 -3.49541 -1.90044
lowerback 14.7004 -0.103597 5.35136
upperback -0.591859 1.19546 4.455
thorax -8.92203 0.441677 1.50782
lowerneck -0.755924 -4.25783 1.35664
upperneck -2.60188 -5.92928 -9.10468
head -1.03888 -2.91545 -3.09947
rclavicle -2.3059e-014 -3.65764e-014
rhumerus 30.4204 13.6161 -56.9842
rradius 131.058
rwrist -0.985145
rhand -35.0892 -42.581
rfingers 7.12502
rthumb -8.2309 -72.4006
lclavicle -2.3059e-014 -3.65764e-014
lhumerus -51.9387 -23.6012 106.39
lradius 111.532
lwrist -3.85813
lhand -12.2127 -35.5186
lfingers 7.12502
lthumb 13.852 -5.99992
rfemur 0 0 0
rtibia 0
rfoot 0 0
rtoes 0
lfemur -8.66944 -0.574565 -15.0764
ltibia 24.7389
lfoot -22.2997 12.8671
ltoes -55.2775
721
root -0.76335 18.8207 6.1151 4.1734 -3.28673 -1.88136
lowerback 14.7688 -0.0359854 5.31737
upperback -0.607227 1.28041 4.38444
thorax -8.97547 0.481327 1.43227
lowerneck -0.859304 -4.17138 1.22268
upperneck -2.41074 -5.7894 -8.91183
head -0.939698 -2.85288 -3.01497
rclavicle -2.50469e-014 -5.56597e-014
rhumerus 30.3708 13.6765 -57.0049
rradius 131.016
rwrist -1.04997
rhand -35.2479 -41.862
rfingers 7.12502
rthumb -8.38402 -71.6756
lclavicle -2.50469e-014 -5.56597e-014
lhumerus -52.0263 -23.611 106.352
lradius 111.567
lwrist -3.84823
lhand -12.2739 -35.5292
lfingers 7.12502
lthumb 13.7931 -6.00648
rfemur 0 0 0
rtibia 0
rfoot 0 0
rtoes 0
lfemur -8.70653 -0.653181 -15.0777
ltibia 24.7692
lfoot -22.206 12.7897
ltoes -55.3934
722
root -0.766056 18.82 6.11873 4.13751 -3.07512 -1.87245
lowerback 14.8258 0.0232077 5.25147
upperback -0.608181 1.34964 4.34965
thorax -9.00835 0.516308 1.41643
lowerneck -1.06697 -4.02135 0.909769
upperneck -2.09603 -5.54832 -8.55352
head -0.767106 -2.74474 -2.84668
rclavicle -4.96962e-015 -4.77083e-015
rhumerus 30.2746 13.8061 -57.0069
rradius 131.045
rwrist -1.05457
rhand -35.2657 -41.789
rfingers 7.12502
rthumb -8.40118 -71.602
lclavicle -4.96962e-015 -4.77083e-015
lhumerus -52.0634 -23.5558 106.336
lradius 111.586
lwrist -3.87152
lhand -12.3278 -35.506
lfingers 7.12502
lthumb 13.7411 -5.97978
rfemur 0 0 0
rtibia 0
rfoot 0 0
rtoes 0
lfemur -8.70952 -0.670033 -15.0565
ltibia 24.7959
lfoot -22.1403 12.6162
ltoes -55.4198
723
root -0.767041 18.8196 6.12075 4.16071 -2.9216 -1.91415
lowerback 14.8262 0.100333 5.20692
upperback -0.595048 1.44199 4.33293
thorax -8.99336 0.562684 1.40249
lowerneck -1.23921 -3.93279 0.75153
upperneck -1.90554 -5.40648 -8.39284
head -0.659249 -2.68213 -2.77083
rclavicle 4.37326e-015 2.38542e-014
rhumerus 30.2507 13.9106 -56.9987
rradius 131.052
rwrist -1.09601
rhand -35.1869 -41.8093
rfingers 7.12502
rthumb -8.32518 -71.6252
lclavicle 4.37326e-015 2.38542e-014
lhumerus -51.991 -23.4958 106.285
lradius 111.609
lwrist -3.85301
lhand -12.3136 -35.4335
lfingers 7.12502
lthumb 13.7548 -5.90816
rfemur 0 0 0
rtibia 0
rfoot 0 0
rtoes 0
lfemur -8.76113 -0.698886 -14.9955
ltibia 24.8153
lfoot -22.147 12.4692
ltoes -55.3511
724
root -0.766414 18.8189 6.12218 4.20158 -2.76975 -1.94941
lowerback 14.813 0.192242 5.18555
upperback -0.578653 1.55412 4.28867
thorax -8.96536 0.616953 1.34125
lowerneck -1.32423 -3.91691 0.807038
upperneck -1.87916 -5.3833 -8.46932
head -0.639258 -2.67307 -2.809
rclavicle 9.93923e-015 -7.95139e-015
rhumerus 30.2406 13.9444 -57.0171
rradius 131.014
rwrist -1.15861
rhand -35.144 -41.6101
rfingers 7.12502
rthumb -8.28378 -71.4277
lclavicle 9.93923e-015 -7.95139e-015
lhumerus -51.9264 -23.4922 106.219
lradius 111.647
lwrist -3.81284
lhand -12.2871 -35.3584
lfingers 7.12502
lthumb 13.7803 -5.83481
rfemur 0 0 0
rtibia 0
rfoot 0 0
rtoes 0
lfemur -8.83102 -0.783267 -14.9503
ltibia 24.8256
lfoot -22.1486 12.3861
ltoes -55.3207
725
root -0.765681 18.819 6.12355 4.22382 -2.59113 -1.92452
lowerback 14.8287 0.283901 5.10754
upperback -0.573692 1.65735 4.22268
thorax -8.96696 0.66849 1.29061
lowerneck -1.32954 -3.8949 0.805416
upperneck -1.90186 -5.35433 -8.45532
head -0.643511 -2.65786 -2.80415
rclavicle 2.98177e-015 -2.70347e-014
rhumerus 30.1391 14.0062 -57.0498
rradius 131.023
rwrist -1.11141
rhand -35.1647 -41.5988
rfingers 7.12502
rthumb -8.30374 -71.4156
lclavicle 2.98177e-015 -2.70347e-014
lhumerus -51.9543 -23.5154 106.159
lradius 111.702
lwrist -3.80917
lhand -12.2941 -35.3438
lfingers 7.12502
lthumb 13.7736 -5.8197
rfemur 0 0 0
rtibia 0
rfoot 0 0
rtoes 0
lfemur -8.89138 -0.890996 -14.9708
ltibia 24.8334
lfoot -22.094 12.3682
ltoes -55.3689
726
root -0.764444 18.8206 6.12416 4.23499 -2.40222 -1.87931
lowerback 14.8829 0.362444 5.00059
upperback -0.579834 1.74225 4.15901
thorax -9.00392 0.711987 1.26285
lowerneck -1.32369 -3.87651 0.774523
upperneck -1.89126 -5.32697 -8.40854
head -0.637298 -2.64401 -2.783
rclavicle 1.59028e-014 0
rhumerus 29.966 14.1756 -57.0775
rradius 131.085
rwrist -0.944622
rhand -35.155 -41.6907
rfingers 7.12502
rthumb -8.29432 -71.5079
lclavicle 1.59028e-014 0
lhumerus -51.9746 -23.5018 106.084
lradius 111.726
lwrist -3.80214
lhand -12.2992 -35.3841
lfingers 7.12502
lthumb 13.7687 -5.85965
rfemur 0 0 0
rtibia 0
rfoot 0 0
rtoes 0
lfemur -8.94412 -1.01315 -15.018
ltibia 24.8358
lfoot -22.029 12.3707
ltoes -55.4316
